<svg width="158" height="158" viewBox="0 0 158 158" fill="none" xmlns="http://www.w3.org/2000/svg">
<rect width="48" height="48" transform="translate(0 110)" fill="#73AF6F"/>
<path d="M40 152V148C40 145.878 39.1571 143.843 37.6569 142.343C36.1566 140.843 34.1217 140 32 140H16C13.8783 140 11.8434 140.843 10.3431 142.343C8.84285 143.843 8 145.878 8 148V152M32 124C32 128.418 28.4183 132 24 132C19.5817 132 16 128.418 16 124C16 119.582 19.5817 116 24 116C28.4183 116 32 119.582 32 124Z" stroke="#1E1E1E" stroke-width="4" stroke-linecap="round" stroke-linejoin="round"/>
<rect width="48" height="48" transform="translate(0 110)" fill="#73AF6F"/>
<path d="M40 152V148C40 145.878 39.1571 143.843 37.6569 142.343C36.1566 140.843 34.1217 140 32 140H16C13.8783 140 11.8434 140.843 10.3431 142.343C8.84285 143.843 8 145.878 8 148V152M32 124C32 128.418 28.4183 132 24 132C19.5817 132 16 128.418 16 124C16 119.582 19.5817 116 24 116C28.4183 116 32 119.582 32 124Z" stroke="#1E1E1E" stroke-width="4" stroke-linecap="round" stroke-linejoin="round"/>
<rect width="48" height="48" transform="translate(55 110)" fill="#73AF6F"/>
<path d="M95 152V148C95 145.878 94.1571 143.843 92.6569 142.343C91.1566 140.843 89.1217 140 87 140H71C68.8783 140 66.8434 140.843 65.3431 142.343C63.8429 143.843 63 145.878 63 148V152M87 124C87 128.418 83.4183 132 79 132C74.5817 132 71 128.418 71 124C71 119.582 74.5817 116 79 116C83.4183 116 87 119.582 87 124Z" stroke="#1E1E1E" stroke-width="4" stroke-linecap="round" stroke-linejoin="round"/>
<rect width="48" height="48" transform="translate(55 110)" fill="#73AF6F"/>
<path d="M95 152V148C95 145.878 94.1571 143.843 92.6569 142.343C91.1566 140.843 89.1217 140 87 140H71C68.8783 140 66.8434 140.843 65.3431 142.343C63.8429 143.843 63 145.878 63 148V152M87 124C87 128.418 83.4183 132 79 132C74.5817 132 71 128.418 71 124C71 119.582 74.5817 116 79 116C83.4183 116 87 119.582 87 124Z" stroke="#1E1E1E" stroke-width="4" stroke-linecap="round" stroke-linejoin="round"/>
<rect width="48" height="48" transform="translate(110 110)" fill="#73AF6F"/>
<path d="M150 152V148C150 145.878 149.157 143.843 147.657 142.343C146.157 140.843 144.122 140 142 140H126C123.878 140 121.843 140.843 120.343 142.343C118.843 143.843 118 145.878 118 148V152M142 124C142 128.418 138.418 132 134 132C129.582 132 126 128.418 126 124C126 119.582 129.582 116 134 116C138.418 116 142 119.582 142 124Z" stroke="#1E1E1E" stroke-width="4" stroke-linecap="round" stroke-linejoin="round"/>
<path d="M40 97V93C40 90.8783 39.1571 88.8434 37.6569 87.3431C36.1566 85.8429 34.1217 85 32 85H16C13.8783 85 11.8434 85.8429 10.3431 87.3431C8.84285 88.8434 8 90.8783 8 93V97M32 69C32 73.4183 28.4183 77 24 77C19.5817 77 16 73.4183 16 69C16 64.5817 19.5817 61 24 61C28.4183 61 32 64.5817 32 69Z" stroke="#73AF6F" stroke-width="4" stroke-linecap="round" stroke-linejoin="round"/>
<rect width="48" height="48" transform="translate(110 55)" fill="#B06060"/>
<path d="M150 97V93C150 90.8783 149.157 88.8434 147.657 87.3431C146.157 85.8429 144.122 85 142 85H126C123.878 85 121.843 85.8429 120.343 87.3431C118.843 88.8434 118 90.8783 118 93V97M142 69C142 73.4183 138.418 77 134 77C129.582 77 126 73.4183 126 69C126 64.5817 129.582 61 134 61C138.418 61 142 64.5817 142 69Z" stroke="black" stroke-width="4" stroke-linecap="round" stroke-linejoin="round"/>
<path d="M40 42V38C40 35.8783 39.1571 33.8434 37.6569 32.3431C36.1566 30.8429 34.1217 30 32 30H16C13.8783 30 11.8434 30.8429 10.3431 32.3431C8.84285 33.8434 8 35.8783 8 38V42M32 14C32 18.4183 28.4183 22 24 22C19.5817 22 16 18.4183 16 14C16 9.58172 19.5817 6 24 6C28.4183 6 32 9.58172 32 14Z" stroke="#73AF6F" stroke-width="4" stroke-linecap="round" stroke-linejoin="round"/>
<rect width="48" height="48" transform="translate(55)" fill="#73AF6F"/>
<path d="M95 42V38C95 35.8783 94.1571 33.8434 92.6569 32.3431C91.1566 30.8429 89.1217 30 87 30H71C68.8783 30 66.8434 30.8429 65.3431 32.3431C63.8429 33.8434 63 35.8783 63 38V42M87 14C87 18.4183 83.4183 22 79 22C74.5817 22 71 18.4183 71 14C71 9.58172 74.5817 6 79 6C83.4183 6 87 9.58172 87 14Z" stroke="#1E1E1E" stroke-width="4" stroke-linecap="round" stroke-linejoin="round"/>
<rect width="48" height="48" transform="translate(110)" fill="#73AF6F"/>
<path d="M150 42V38C150 35.8783 149.157 33.8434 147.657 32.3431C146.157 30.8429 144.122 30 142 30H126C123.878 30 121.843 30.8429 120.343 32.3431C118.843 33.8434 118 35.8783 118 38V42M142 14C142 18.4183 138.418 22 134 22C129.582 22 126 18.4183 126 14C126 9.58172 129.582 6 134 6C138.418 6 142 9.58172 142 14Z" stroke="#1E1E1E" stroke-width="4" stroke-linecap="round" stroke-linejoin="round"/>
<rect width="48" height="48" transform="translate(55 55)" fill="#F5E6A1"/>
<path d="M73.18 73C73.6502 71.6633 74.5783 70.5362 75.7999 69.8183C77.0215 69.1003 78.4578 68.8379 79.8544 69.0774C81.2509 69.317 82.5176 70.043 83.4302 71.1271C84.3427 72.2111 84.8421 73.583 84.84 75C84.84 79 78.84 81 78.84 81M79 89H79.02M99 79C99 90.0457 90.0457 99 79 99C67.9543 99 59 90.0457 59 79C59 67.9543 67.9543 59 79 59C90.0457 59 99 67.9543 99 79Z" stroke="black" stroke-width="4" stroke-linecap="round" stroke-linejoin="round"/>
</svg>
