<svg width="500" height="500" viewBox="0 0 500 500" fill="none" xmlns="http://www.w3.org/2000/svg">
<circle cx="250" cy="250" r="250" fill="#73AF6F"/>
<circle cx="250" cy="250" r="200" fill="#FAE0CA"/>
<path d="M400 250C400 332.843 332.843 400 250 400C167.157 400 100 332.843 100 250C100 167.157 167.157 100 250 100C332.843 100 400 167.157 400 250Z" fill="#73AF6F"/>
<circle cx="250" cy="250" r="100" fill="#FAE0CA"/>
<circle cx="252" cy="243" r="50" fill="#CE5E5E"/>
<path d="M477.5 233.237L456 245.65L477.5 258.062V267.301L440 245.65L477.5 224V233.237Z" fill="#D9D9D9"/>
<path d="M448.5 233.237L427 245.65L448.5 258.062V267.301L411 245.65L448.5 224V233.237Z" fill="#D9D9D9"/>
<rect x="259" y="244" width="223" height="5" fill="#454343"/>
<circle cx="482.5" cy="246.5" r="7.5" fill="#D9D9D9"/>
<path d="M457.482 342.392L432.656 342.392L445.07 363.892L440.451 371.892L418.8 334.392L462.101 334.393L457.482 342.392Z" fill="#D9D9D9"/>
<path d="M432.367 327.892L407.541 327.892L419.954 349.392L415.335 357.392L393.685 319.892L436.986 319.893L432.367 327.892Z" fill="#D9D9D9"/>
<rect x="265.43" y="243.938" width="220.047" height="5" transform="rotate(30 265.43 243.938)" fill="#454343"/>
<circle cx="455.179" cy="356.378" r="7.5" transform="rotate(30 455.179 356.378)" fill="#D9D9D9"/>
<path d="M445.577 126.817L433.164 148.317L457.99 148.316L462.609 156.317L419.308 156.317L440.958 118.817L445.577 126.817Z" fill="#D9D9D9"/>
<path d="M420.464 141.317L408.051 162.817L432.876 162.816L437.495 170.817L394.194 170.817L415.845 133.317L420.464 141.317Z" fill="#D9D9D9"/>
<rect x="261.732" y="245.389" width="223" height="5" transform="rotate(-30 261.732 245.389)" fill="#454343"/>
<path d="M231.296 262.536L252.534 227.677L272.103 261.572L231.296 262.536Z" fill="#D9D9D9"/>
<circle cx="456.54" cy="135.804" r="7.5" transform="rotate(-30 456.54 135.804)" fill="#D9D9D9"/>
</svg>
